<svg width="40" height="40" viewBox="0 0 40 40" fill="none" xmlns="http://www.w3.org/2000/svg">
<path d="M27.5 0L12.5 0C5.5975 0 0 5.5975 0 12.5L0 27.5C0 34.4025 5.5975 40 12.5 40L27.5 40C34.4025 40 40 34.4025 40 27.5V12.5C40 5.5975 34.4025 0 27.5 0ZM36.25 27.5C36.25 32.325 32.325 36.25 27.5 36.25L12.5 36.25C7.675 36.25 3.75 32.325 3.75 27.5L3.75 12.5C3.75 7.675 7.675 3.75 12.5 3.75L27.5 3.75C32.325 3.75 36.25 7.675 36.25 12.5V27.5Z" fill="black"/>
<path d="M20 10C14.4775 10 10 14.4775 10 20C10 25.5225 14.4775 30 20 30C25.5225 30 30 25.5225 30 20C30 14.4775 25.5225 10 20 10ZM20 26.25C16.555 26.25 13.75 23.445 13.75 20C13.75 16.5525 16.555 13.75 20 13.75C23.445 13.75 26.25 16.5525 26.25 20C26.25 23.445 23.445 26.25 20 26.25Z" fill="black"/>
<path d="M30.7505 10.5825C31.4864 10.5825 32.083 9.98589 32.083 9.24997C32.083 8.51406 31.4864 7.91748 30.7505 7.91748C30.0145 7.91748 29.418 8.51406 29.418 9.24997C29.418 9.98589 30.0145 10.5825 30.7505 10.5825Z" fill="black"/>
</svg>
